<svg width="97" height="97" viewBox="0 0 97 97" fill="none" xmlns="http://www.w3.org/2000/svg">
<g clip-path="url(#clip0_1_6)">
<path d="M59.7251 63.6562H37.2749L30.3125 42.2954L48.5 29.0811L66.6875 42.2954L59.7251 63.6562ZM59.5356 44.5688L48.5 36.5645L37.4644 44.5688L41.6797 57.5938H55.3203L59.5356 44.5688ZM48.5 0C52.9521 0 57.2464 0.568359 61.3828 1.70508C65.5192 2.8418 69.3872 4.46794 72.9868 6.5835C76.5864 8.69906 79.8545 11.2251 82.791 14.1616C85.7275 17.0981 88.2536 20.382 90.3691 24.0132C92.4847 27.6444 94.1108 31.5124 95.2476 35.6172C96.3843 39.722 96.9684 44.0163 97 48.5C97 52.9521 96.4316 57.2464 95.2949 61.3828C94.1582 65.5192 92.5321 69.3872 90.4165 72.9868C88.3009 76.5864 85.7749 79.8545 82.8384 82.791C79.9019 85.7275 76.618 88.2536 72.9868 90.3691C69.3556 92.4847 65.4876 94.1108 61.3828 95.2476C57.278 96.3843 52.9837 96.9684 48.5 97C44.0479 97 39.7536 96.4316 35.6172 95.2949C31.4808 94.1582 27.6128 92.5321 24.0132 90.4165C20.4136 88.3009 17.1455 85.7749 14.209 82.8384C11.2725 79.9019 8.74642 76.618 6.63086 72.9868C4.5153 69.3556 2.88916 65.5034 1.75244 61.4302C0.615723 57.3569 0.0315755 53.0469 0 48.5C0 44.0479 0.568359 39.7536 1.70508 35.6172C2.8418 31.4808 4.46794 27.6128 6.5835 24.0132C8.69906 20.4136 11.2251 17.1455 14.1616 14.209C17.0981 11.2725 20.382 8.74642 24.0132 6.63086C27.6444 4.5153 31.4966 2.88916 35.5698 1.75244C39.6431 0.615723 43.9531 0.0315755 48.5 0ZM90.5112 42.3901C89.8166 37.6222 88.3325 33.0754 86.0591 28.7495L79.665 27.8022L78.0073 38.9326L85.917 46.937L90.5112 42.3901ZM55.6519 6.67822C54.452 6.45719 53.2679 6.29932 52.0996 6.20459C50.9313 6.10986 49.7314 6.0625 48.5 6.0625C47.3001 6.0625 46.116 6.10986 44.9478 6.20459C43.7795 6.29932 42.5796 6.45719 41.3481 6.67822L38.459 12.4565L48.5 17.4771L58.541 12.4565L55.6519 6.67822ZM10.9409 28.7495C8.66748 33.0754 7.18343 37.6222 6.48877 42.3901L11.083 46.937L18.9927 38.9326L17.335 27.8022L10.9409 28.7495ZM18.1401 78.1021C21.5187 81.5754 25.3867 84.3856 29.7441 86.5327L35.4277 83.5962L30.2651 73.6025L19.1821 71.7554L18.1401 78.1021ZM37.3223 89.4219C41.0166 90.4323 44.7425 90.9375 48.5 90.9375C52.2575 90.9375 55.9834 90.4323 59.6777 89.4219L53.3784 86.1538L62.7563 68.1084L82.791 64.793L83.9751 71.7554C86.0591 68.5662 87.6852 65.1877 88.8535 61.6196C90.0218 58.0516 90.7007 54.3415 90.8901 50.4893L85.8223 55.5098L71.5659 41.0166L74.5972 20.8872L81.6069 21.9292C79.2388 18.9611 76.5233 16.3719 73.4604 14.1616C70.3976 11.9513 67.0822 10.1673 63.5142 8.80957L66.6875 15.1562L48.5 24.25L30.3125 15.1562L33.4858 8.80957C29.9494 10.1357 26.6497 11.904 23.5869 14.1143C20.5241 16.3245 17.7928 18.9295 15.3931 21.9292L22.4028 20.8872L25.4341 41.0166L11.1777 55.5098L6.10986 50.4893C6.29932 54.3099 6.97819 58.0042 8.14648 61.5723C9.31478 65.1403 10.9409 68.5347 13.0249 71.7554L14.209 64.793L34.2437 68.1084L43.6216 86.1538L37.3223 89.4219ZM67.2559 86.5327C71.6133 84.3856 75.4813 81.5754 78.8599 78.1021L77.8179 71.7554L66.7349 73.6025L61.5723 83.5962L67.2559 86.5327Z" fill="#5957D2"/>
</g>
<defs>
<clipPath id="clip0_1_6">
<rect width="97" height="97" fill="white"/>
</clipPath>
</defs>
</svg>
