<svg width="29" height="29" viewBox="0 0 29 29" fill="none" xmlns="http://www.w3.org/2000/svg">
<path d="M28.4736 12.0421H27.3239V11.9841H14.4772V17.5698H22.5442C21.3673 20.8214 18.2049 23.1555 14.4772 23.1555C9.74745 23.1555 5.91271 19.404 5.91271 14.777C5.91271 10.1499 9.74745 6.39841 14.4772 6.39841C16.6604 6.39841 18.6466 7.20415 20.159 8.52028L24.1964 4.57049C21.6471 2.24614 18.237 0.812714 14.4772 0.812714C6.5943 0.812714 0.203064 7.06521 0.203064 14.777C0.203064 22.4887 6.5943 28.7412 14.4772 28.7412C22.36 28.7412 28.7513 22.4887 28.7513 14.777C28.7513 13.8407 28.6528 12.9267 28.4736 12.0421Z" fill="#FFC107"/>
<path d="M1.84888 8.2773L6.53863 11.642C7.8076 8.56846 10.8808 6.39841 14.4772 6.39841C16.6604 6.39841 18.6466 7.20415 20.159 8.52028L24.1964 4.57049C21.6471 2.24614 18.237 0.812714 14.4772 0.812714C8.99449 0.812714 4.23979 3.84086 1.84888 8.2773Z" fill="#FF3D00"/>
<path d="M14.4772 28.7412C18.1642 28.7412 21.5144 27.3609 24.0473 25.1161L19.6295 21.4589C18.1482 22.5609 16.3382 23.157 14.4772 23.1555C10.7645 23.1555 7.61211 20.8396 6.4245 17.6075L1.76971 21.1161C4.13208 25.6384 8.92961 28.7412 14.4772 28.7412Z" fill="#4CAF50"/>
<path d="M28.4736 12.0421H27.3239V11.9841H14.4772V17.5698H22.5442C21.9812 19.1174 20.9671 20.4696 19.6273 21.4596L19.6294 21.4582L24.0472 25.1154C23.7346 25.3933 28.7513 21.7591 28.7513 14.777C28.7513 13.8407 28.6528 12.9267 28.4736 12.0421Z" fill="#1976D2"/>
</svg>
